<?xml version="1.0" encoding="iso-8859-1"?>
<!-- Generator: Adobe Illustrator 16.0.0, SVG Export Plug-In . SVG Version: 6.00 Build 0)  -->
<!DOCTYPE svg PUBLIC "-//W3C//DTD SVG 1.1//EN" "http://www.w3.org/Graphics/SVG/1.1/DTD/svg11.dtd">
<svg xmlns="http://www.w3.org/2000/svg" xmlns:xlink="http://www.w3.org/1999/xlink" version="1.1" id="Capa_1" x="0px" y="0px" width="512px" height="512px" viewBox="0 0 777.727 777.727" style="enable-background:new 0 0 777.727 777.727;" xml:space="preserve">
<g>
	<path d="M679.175,362.82l-222.472-59.388v-46.731c0-10.304-6.766-18.58-16.355-20.932L191.63,174.189v-19.39   c17.119-4.949,30.806-14.441,41.839-28.559c11.026-14.036,16.729-30.019,16.729-47.868c0-21.743-7.602-40.322-23.196-55.575   C211.41,7.626,192.774,0,170.714,0c-21.67,0-40.403,7.464-55.899,22.798c-15.31,15.09-22.822,33.832-22.822,55.575   c0,17.849,5.33,33.832,16.356,47.868c11.026,14.117,25.102,23.609,41.45,28.559v35.698v338.886v206.48h-46.018   c-11.788,0-20.916,9.168-20.916,20.932c0,11.766,9.127,20.932,20.916,20.932h134.63c11.789,0,21.297-9.166,21.297-20.932   c0-11.764-9.509-20.932-21.297-20.932h-46.78V544.23l222.86-79.508v34.236c0,7.951,2.994,13.793,9.509,17.85   c3.749,2.352,7.603,3.406,11.407,3.406c3.043,0,6.085-0.729,8.746-2.596L683.36,402.332c8.43-4.057,12.154-11.359,11.407-20.932   C693.997,371.583,688.716,365.335,679.175,362.82z M144.858,104.579c-14.263-14.685-14.068-38.051,0-52.086   c14.068-14.117,37.272-14.117,52.103,0c14.831,14.036,15.018,37.483,0,52.086C182.316,118.858,158.74,118.858,144.858,104.579z    M414.49,420.262l-222.86,79.428v-281.77l222.86,55.169V420.262z M456.703,465.451V347.243l157.062,42.188L456.703,465.451z" fill="#383b43"/>
</g>
<g>
</g>
<g>
</g>
<g>
</g>
<g>
</g>
<g>
</g>
<g>
</g>
<g>
</g>
<g>
</g>
<g>
</g>
<g>
</g>
<g>
</g>
<g>
</g>
<g>
</g>
<g>
</g>
<g>
</g>
</svg>
